<?xml version="1.0" encoding="utf-8"?>
<!-- Generator: Adobe Illustrator 22.1.0, SVG Export Plug-In . SVG Version: 6.00 Build 0)  -->
<svg version="1.1" id="Camada_1" xmlns="http://www.w3.org/2000/svg" xmlns:xlink="http://www.w3.org/1999/xlink" x="0px" y="0px"
	 viewBox="0 0 14 14" style="enable-background:new 0 0 14 14;" xml:space="preserve">
<style type="text/css">
	.st0{fill:#FD9254;}
</style>
<path class="st0" d="M13.9,7.4c0,0.1-0.1,0.3-0.2,0.4l-6,6c-0.4,0.4-1,0.3-1.4-0.1c-0.4-0.4-0.4-1-0.1-1.4L10.5,8H1C0.4,8,0,7.6,0,7
	s0.4-1,1-1h9.5L6.3,1.7c-0.4-0.4-0.3-1,0.1-1.4c0.4-0.4,1-0.4,1.4-0.1l6,6c0.1,0.1,0.2,0.2,0.2,0.4C14,6.8,14,6.9,14,7
	C14,7.1,14,7.3,13.9,7.4z"/>
</svg>
